<?xml version="1.0" standalone="no"?>
<!DOCTYPE svg PUBLIC "-//W3C//DTD SVG 20010904//EN"
 "http://www.w3.org/TR/2001/REC-SVG-20010904/DTD/svg10.dtd">
<svg version="1.0" xmlns="http://www.w3.org/2000/svg"
 width="1047" height="1067" viewBox="0 0 1847.000000 1847.000000"
 preserveAspectRatio="xMidYMid meet">
<g transform="translate(0.000000,1847.000000) scale(0.100000,-0.100000)"
fill="#000000" stroke="none">
<path d="M9077 18164 c-1 -1 -85 -5 -187 -8 -102 -4 -201 -8 -220 -10 -19 -2
-80 -7 -135 -11 -105 -6 -164 -12 -230 -20 -22 -3 -65 -7 -95 -10 -52 -5 -102
-11 -160 -20 -14 -2 -50 -7 -80 -10 -30 -4 -107 -16 -170 -26 -63 -11 -128
-22 -144 -24 -24 -4 -149 -28 -301 -59 -11 -3 -63 -14 -115 -26 -52 -12 -102
-23 -110 -25 -186 -38 -832 -235 -1005 -306 -16 -7 -34 -13 -40 -15 -21 -5
-264 -104 -378 -153 -493 -212 -1002 -490 -1457 -794 -165 -111 -460 -326
-556 -406 -17 -14 -46 -38 -65 -53 -79 -62 -298 -249 -375 -320 -26 -23 -75
-68 -108 -98 -89 -81 -357 -350 -468 -470 -98 -106 -111 -120 -196 -220 -26
-30 -54 -61 -62 -70 -60 -64 -287 -352 -410 -522 -183 -251 -396 -580 -542
-838 -14 -25 -36 -63 -48 -85 -47 -83 -142 -265 -204 -390 -65 -131 -216 -461
-216 -471 0 -3 -11 -30 -25 -60 -14 -30 -25 -57 -25 -60 0 -3 -7 -20 -14 -37
-57 -124 -221 -605 -295 -862 -44 -156 -129 -497 -147 -595 -3 -14 -14 -68
-24 -120 -21 -106 -56 -302 -65 -370 -3 -25 -8 -52 -10 -60 -2 -8 -7 -44 -10
-80 -3 -36 -8 -72 -10 -80 -2 -8 -7 -40 -10 -70 -7 -66 -15 -134 -20 -175 -2
-16 -7 -73 -10 -125 -4 -52 -9 -111 -11 -130 -25 -262 -25 -1003 1 -1310 2
-30 7 -80 10 -110 3 -30 7 -82 10 -115 10 -110 14 -145 19 -178 3 -17 8 -54
11 -82 7 -60 14 -109 20 -150 3 -16 7 -48 10 -70 33 -226 129 -696 175 -855 5
-19 24 -87 41 -150 161 -606 456 -1339 758 -1882 37 -68 81 -145 96 -173 128
-231 404 -652 590 -900 112 -148 269 -349 300 -381 5 -6 30 -35 55 -64 328
-392 762 -817 1185 -1160 252 -205 589 -448 841 -607 61 -39 408 -245 454
-270 371 -203 721 -368 1075 -505 164 -64 236 -91 250 -94 6 -2 75 -25 155
-53 125 -43 383 -123 438 -136 9 -3 60 -16 112 -30 108 -29 92 -25 230 -58 58
-14 116 -28 130 -31 14 -2 68 -14 120 -25 100 -21 106 -22 240 -46 114 -20
140 -24 310 -50 14 -3 45 -7 70 -10 25 -3 79 -9 120 -15 41 -5 104 -12 140
-15 36 -4 76 -8 90 -10 14 -2 66 -6 115 -10 50 -3 110 -8 135 -10 273 -23 955
-23 1190 0 25 2 88 7 140 10 52 3 102 7 110 9 8 3 56 8 105 11 50 4 92 8 95
10 3 1 36 6 73 10 37 3 76 8 86 10 10 2 42 6 72 10 30 3 61 8 69 10 8 2 35 7
60 10 25 3 52 8 60 10 8 2 35 7 60 10 47 6 111 18 220 40 36 8 81 17 100 20
42 7 233 51 310 71 30 8 66 17 80 20 92 19 455 128 655 195 213 73 527 195
703 276 41 18 76 33 78 33 5 0 237 110 334 159 142 72 305 159 430 231 69 40
134 78 145 84 11 6 31 18 45 27 14 9 57 35 95 59 146 91 335 218 475 318 139
100 373 277 402 304 7 7 49 42 93 78 102 82 298 253 395 344 122 115 429 425
510 515 41 46 88 97 104 115 66 72 271 321 374 454 296 381 577 815 819 1267
143 265 390 806 448 980 8 22 26 72 40 110 63 163 213 625 230 705 5 25 36
143 45 175 14 47 41 155 47 184 2 14 13 67 24 116 19 86 35 161 45 215 2 14
11 59 19 100 8 41 22 120 30 175 9 55 18 111 20 125 2 14 11 84 20 155 9 72
18 148 21 170 5 41 9 83 20 215 3 41 7 89 9 105 25 203 25 1165 1 1315 -3 14
-7 66 -11 115 -3 50 -8 104 -10 120 -3 17 -7 57 -10 90 -3 33 -7 71 -10 85 -2
14 -7 50 -10 81 -3 31 -7 66 -9 76 -3 11 -7 44 -11 73 -4 30 -20 128 -35 219
-31 180 -33 190 -57 301 -8 41 -19 95 -24 119 -76 381 -318 1148 -469 1486 -5
11 -29 68 -54 126 -104 243 -275 591 -381 774 -13 22 -37 66 -55 98 -17 32
-51 90 -75 130 -24 40 -56 92 -71 117 -201 333 -487 730 -760 1055 -147 175
-156 185 -277 319 -209 231 -652 652 -876 832 -13 10 -28 24 -35 29 -27 25
-209 168 -291 229 -49 37 -97 73 -105 79 -150 118 -638 434 -840 545 -25 13
-59 33 -77 43 -150 91 -586 305 -848 417 -189 81 -602 239 -647 247 -10 2 -23
7 -28 10 -29 18 -665 200 -768 220 -10 1 -80 17 -157 33 -77 17 -151 33 -165
35 -14 3 -63 12 -110 21 -47 9 -101 19 -120 22 -19 3 -46 7 -60 10 -14 2 -56
9 -95 14 -38 6 -81 13 -95 15 -46 8 -280 36 -345 41 -35 3 -72 6 -82 8 -10 2
-66 7 -123 11 -58 4 -121 9 -140 10 -68 7 -717 24 -723 19z m473 -779 c102 -3
201 -8 220 -10 19 -2 80 -6 135 -10 55 -4 107 -9 116 -10 9 -2 52 -6 95 -10
43 -4 86 -9 94 -10 48 -9 126 -18 133 -17 4 1 26 -2 50 -7 23 -5 65 -12 94
-15 28 -3 57 -8 65 -11 7 -2 31 -6 53 -9 34 -4 206 -36 270 -50 11 -2 54 -11
95 -20 359 -75 815 -211 1183 -353 l117 -46 0 -46 c1 -63 1 -10599 0 -10688
l0 -71 -617 1 -618 2 0 3030 0 3030 -816 3 -816 2 -158 -257 c-87 -142 -182
-296 -211 -343 -29 -47 -138 -224 -242 -395 -105 -170 -195 -315 -201 -322 -6
-7 -11 -15 -11 -18 0 -3 -23 -43 -52 -88 -28 -45 -68 -109 -88 -142 -20 -33
-75 -121 -121 -195 -46 -74 -91 -147 -99 -161 -8 -15 -160 -262 -338 -550
-178 -288 -329 -533 -335 -544 -7 -11 -26 -42 -43 -70 -18 -27 -123 -198 -234
-380 -227 -368 -382 -620 -475 -770 -80 -129 -167 -271 -180 -293 -10 -16 -73
-119 -126 -205 -47 -76 -153 -248 -293 -477 -76 -124 -143 -230 -150 -237 -8
-9 -11 1287 -11 5052 0 2785 2 5065 5 5068 3 3 52 24 110 47 58 23 119 48 135
55 274 117 1032 338 1303 381 20 3 40 8 43 9 3 2 32 9 65 14 64 11 294 49 334
56 27 4 73 10 155 21 28 3 58 8 68 10 10 2 53 6 95 9 42 4 88 8 102 10 14 2
66 7 115 11 50 3 108 8 130 9 22 2 117 6 210 10 94 4 171 8 172 8 3 4 298 -1
473 -8z m4030 -1248 c222 -133 734 -509 934 -686 279 -248 306 -272 500 -467
251 -252 420 -443 646 -730 204 -260 464 -640 601 -879 349 -611 564 -1096
759 -1713 23 -73 40 -135 38 -137 -3 -4 -83 50 -125 85 -7 6 -14 10 -17 10 -3
0 -33 18 -68 40 -92 60 -302 164 -432 215 -179 70 -436 139 -596 160 -25 3
-61 8 -80 10 -19 3 -55 8 -80 11 -74 9 -449 12 -530 3 -123 -13 -174 -20 -190
-24 -8 -2 -35 -7 -60 -10 -76 -11 -265 -63 -367 -101 -369 -137 -750 -412
-997 -719 -37 -47 -69 -85 -70 -85 -1 0 2 4986 3 5067 l1 33 48 -31 c26 -17
63 -41 82 -52z m-8723 -2541 l0 -2523 -60 76 c-75 95 -257 276 -359 358 -316
252 -700 425 -1065 479 -21 3 -45 7 -53 9 -75 20 -495 27 -670 12 -52 -5 -97
-10 -100 -12 -3 -1 -32 -6 -65 -9 -154 -17 -444 -97 -626 -171 -116 -47 -290
-134 -381 -190 -32 -19 -58 -31 -58 -27 0 5 27 91 61 193 89 269 175 491 315
809 38 86 242 495 269 540 12 19 36 60 53 92 130 239 386 630 584 893 75 99
144 190 154 202 11 12 33 39 49 59 30 38 210 249 230 270 5 6 48 53 95 105
150 165 420 430 590 578 47 41 87 77 90 81 13 16 297 244 405 325 66 50 122
93 123 98 2 4 10 7 17 7 7 0 15 4 17 9 3 7 374 261 382 261 2 0 3 -1136 3
-2524z m10633 -2520 c13 -3 42 -8 65 -11 46 -7 190 -43 220 -55 11 -4 47 -18
80 -31 135 -51 324 -161 435 -253 109 -91 277 -270 343 -366 100 -144 145
-223 204 -356 77 -169 153 -426 183 -614 7 -41 14 -84 16 -95 6 -34 15 -104
29 -235 15 -148 19 -266 19 -625 0 -220 -3 -445 -7 -500 -23 -308 -90 -564
-228 -875 -30 -67 -220 -448 -295 -590 -35 -67 -233 -269 -351 -358 -84 -63
-230 -156 -293 -184 -213 -98 -358 -137 -571 -156 -127 -11 -298 -5 -404 14
-244 43 -420 109 -610 229 -44 27 -87 55 -95 62 -283 222 -483 467 -611 749
-47 103 -106 264 -129 357 -12 45 -26 93 -31 107 -4 14 -11 36 -13 50 -3 14
-10 50 -15 80 -6 30 -13 66 -16 80 -3 13 -7 42 -10 65 -3 22 -8 47 -10 55 -2
8 -7 44 -10 80 -4 36 -8 76 -10 90 -27 182 -27 885 0 1125 2 17 6 57 10 90 3
33 8 71 10 85 2 14 7 45 10 70 56 389 184 781 342 1044 103 171 291 387 448
513 252 203 558 331 854 359 36 4 68 8 70 10 6 5 342 -4 371 -10z m-12199 -51
c193 -29 326 -69 485 -145 180 -86 323 -189 474 -340 226 -224 349 -413 471
-721 33 -83 101 -299 113 -362 3 -12 14 -65 25 -117 24 -114 26 -126 41 -227
26 -185 32 -237 46 -453 15 -213 8 -710 -11 -890 -14 -125 -23 -185 -41 -290
-8 -47 -17 -96 -19 -110 -5 -27 -6 -33 -30 -135 -71 -300 -220 -623 -383 -830
-75 -94 -211 -234 -297 -303 -38 -31 -72 -59 -75 -62 -15 -17 -156 -104 -230
-142 -109 -57 -171 -81 -296 -117 -98 -29 -119 -33 -219 -46 -27 -4 -61 -9
-75 -11 -34 -5 -299 -5 -330 0 -14 3 -45 7 -70 10 -53 7 -63 9 -155 30 -298
70 -593 248 -842 510 -103 109 -107 114 -252 401 -261 514 -346 764 -385 1130
-28 260 -23 971 9 1245 2 19 7 60 10 90 5 46 22 152 40 260 36 206 145 518
248 709 144 268 408 547 659 699 194 118 433 200 633 219 33 3 62 7 64 9 10 9
316 0 392 -11z m6577 -2589 l0 -2433 -1520 -1 c-1149 0 -1518 3 -1515 11 4 10
191 313 227 367 5 8 49 78 96 155 48 77 100 160 116 185 37 59 173 277 293
470 53 85 156 250 229 367 74 117 136 218 140 225 3 7 77 126 163 264 135 215
292 465 759 1214 46 74 88 142 93 150 5 8 101 161 213 340 111 178 208 333
213 342 6 10 93 150 195 313 102 162 190 302 195 312 20 35 97 153 100 153 1
0 3 -1095 3 -2434z m3595 -2752 c151 -187 236 -279 347 -375 86 -74 186 -149
198 -149 6 0 12 -4 14 -8 10 -24 249 -148 393 -205 179 -70 410 -122 635 -143
144 -14 523 -8 615 10 11 2 43 7 70 10 111 16 235 42 348 75 37 11 67 18 67
16 0 -14 -336 -509 -375 -551 -5 -7 -19 -24 -30 -40 -25 -35 -251 -319 -286
-359 -233 -267 -244 -279 -459 -495 -404 -405 -782 -715 -1267 -1038 -129 -87
-496 -312 -507 -312 -2 0 -46 -24 -98 -54 -90 -51 -422 -217 -538 -269 -104
-46 -319 -137 -325 -137 -4 0 -21 -7 -38 -15 -107 -49 -501 -184 -742 -254
-139 -39 -421 -111 -440 -111 -7 0 -10 613 -10 1825 0 1615 2 1825 15 1826 8
0 526 1 1150 1 624 0 1143 2 1152 4 16 5 17 37 17 392 0 213 0 411 0 441 l1
54 39 -60 c21 -33 46 -69 54 -79z m-8525 -326 c0 -227 1 -423 1 -436 l1 -23
1063 6 c584 3 1283 7 1552 10 1919 15 2265 18 2296 16 19 -1 17 245 19 -2240
0 -871 -1 -1585 -2 -1587 -22 -21 -741 -35 -1023 -19 -213 11 -312 18 -420 30
-22 2 -69 7 -105 11 -36 3 -67 7 -70 9 -3 2 -37 6 -75 9 -39 3 -81 8 -95 11
-31 5 -158 26 -185 30 -11 1 -36 5 -55 9 -19 3 -46 8 -60 10 -14 2 -36 7 -50
10 -26 6 -71 15 -105 20 -104 17 -418 93 -630 152 -1072 302 -2142 868 -2990
1583 -49 42 -101 85 -114 96 -13 11 -36 31 -51 45 -15 14 -65 59 -111 100
-268 240 -643 642 -895 960 -156 198 -454 614 -454 634 0 6 46 1 80 -9 22 -6
96 -18 180 -29 190 -25 568 -25 700 -1 14 2 45 6 70 9 25 3 52 7 60 10 8 3 31
7 50 10 20 3 87 19 150 35 354 91 670 272 930 529 108 108 237 263 299 360 18
28 34 52 36 52 1 0 2 -186 3 -412z"/>
</g>
</svg>
