<?xml version="1.0" standalone="yes"?>
<svg xmlns="http://www.w3.org/2000/svg" width="1047" height="1067">
<path style="fill:#ffffff; stroke:none;" d="M0 0L0 536C15.0878 532.398 36.1788 535.754 50 528.821C56.2065 525.708 60.8427 518.832 66 514.286C77.5647 504.09 89.4521 494.394 102 485.427C148.082 452.499 208.5 432.707 265 445.651C287.863 450.889 309.189 459.822 329 472.436C338.654 478.583 346.939 487.788 357 493L336 526C317.255 512.951 301.845 498.35 280 490.064C213.464 464.826 146.641 494.793 96 539L96 540C127.155 565.285 159.988 587.501 200 595.551C293.094 614.281 368.253 537.681 392 454C363.517 454 335.854 451.122 309 440.936C246.537 417.243 206.573 360.271 191.13 297C186.303 277.224 184.092 257.198 182.17 237C181.428 229.208 184 219.401 181.262 212C178.571 204.729 171.15 198.055 166.424 192C164.055 188.964 146.66 170.494 155.074 168.541C159.063 167.615 164.188 173.384 167 175.576C175.311 182.051 187.492 195.874 198 197.772C217.015 201.206 237.605 199.28 257 202.275C309.917 210.444 362.242 233.73 396.54 276C416.046 300.04 429.446 329.472 434.75 360C435.821 366.163 440.872 383.453 436.396 388.487C429.427 396.324 408.572 394.72 399 397C399 380.554 397.04 364.806 392.28 349C369.853 274.537 293.788 240.125 221 237C224.707 323.346 275.666 408.519 369 414.911C413.593 417.964 449.86 403.712 490 387C484.244 374.657 470.109 364.172 461.884 353C446.188 331.679 435.257 306.843 429.662 281C417.582 225.202 436.057 165.828 468.424 120C476.995 107.864 485.978 95.9849 496 85C501.258 79.2367 510.557 72.2603 513.411 65C518.944 50.929 518.102 31.0161 520 16C528.957 16.2932 528.23 23.6902 529.05 31C530.299 42.1265 529.306 61.5079 537.059 70C583.839 121.241 627.809 184.671 620.83 258C617.776 290.092 607.23 320.165 589.333 347C585.359 352.959 576.518 369.826 568.911 371.003C559.212 372.504 545.422 355.753 537 352C552.767 328.941 569.09 310.486 577.279 283C591.463 235.398 575.713 185.088 549 145C541.529 133.789 533.565 120.526 523 112C500.815 141.437 479.432 169.643 469.884 206C466.384 219.329 465 232.267 465 246C465 329.302 536.316 384.357 609 408C609 383.276 611.431 359.809 618.424 336C622.565 321.904 629.036 308.539 636.601 296C682.281 220.28 765.768 203.007 847 197.956C858.109 197.265 870.521 183.031 879 176.424C885.299 171.517 889.305 166.388 897 171L897 172C887.166 180.728 871.442 198.676 866.735 211C863.423 219.669 865.529 229.974 864.911 239C863.74 256.095 861.361 273.23 857.789 290C846.893 341.166 820.767 389.755 777 419.974C754.144 435.755 728.346 446.001 701 450.75C695.36 451.73 679.239 456.416 674.564 452.357C667.15 445.92 667.695 424.126 666 415C693.787 415 721.897 408.886 746 394.547C798.343 363.408 825.836 296.42 826 237C781.829 238.896 731.625 252.151 698 282.174C636.813 336.806 632.767 438.93 677 506C685.282 500.166 692.119 492.065 700 485.614C714.999 473.338 732.032 462.941 750 455.603C815.655 428.791 884.651 445.03 942 483.333C955.028 492.034 967.248 501.94 979 512.286C985.049 517.611 990.661 525.359 998 528.977C1011.65 535.704 1032.16 532.457 1047 536L1047 0L0 0z"/>
<path style="fill:#af9b85; stroke:none;" d="M520 16C517.209 31.024 518.996 49.7975 513.411 64C510.419 71.6091 500.572 78.9366 495.075 85C484.631 96.5196 474.98 109.063 466.355 122C428.714 178.461 413.202 248.576 439.201 313C446.505 331.1 456.538 347.824 468.805 363C475.477 371.255 483.918 378.366 490 387C480.284 389.799 471.414 395.785 462 399.551C441.688 407.676 418.973 413.998 397 414.961C376.31 415.867 355.965 414.27 336 408.573C259.274 386.678 226.773 310.154 221 237C294.932 242.835 370.691 274.596 392.859 352C397.11 366.844 399 381.601 399 397C408.32 395.27 417.716 394.477 427 392.349C430.017 391.657 435.034 391.227 436.972 388.487C440.977 382.826 435.879 365.498 434.75 359C429.389 328.145 415.757 298.072 395.715 274C361.487 232.892 310.051 210.31 258 202.275C245.124 200.287 232.004 198.609 219 198.039C212.324 197.747 204.486 199.31 198 197.567C187.63 194.78 176.413 182.13 168 175.576C164.873 173.139 159.469 167.088 155.059 167.882C145.066 169.681 163.216 188.854 165.65 192C170.585 198.374 178.439 205.373 181.262 213C184 220.401 181.428 230.208 182.17 238C184.25 259.86 186.516 281.744 192.424 303C211.258 370.753 255.542 426.752 325 446.573C346.922 452.828 369.369 454 392 454C382.056 479.97 372.819 504.313 356.116 527C315.584 582.052 252.084 610.716 185 591.573C162.599 585.18 141.988 573.549 123 560.28C113.85 553.886 105.634 545.562 96 540L96 539C112.958 528.395 127.454 514.464 145 504.427C186.092 480.922 235.248 472.695 280 490.45C292.417 495.376 304.3 501.882 315 509.895C321.878 515.045 328.212 522.39 336 526C343.35 515.768 353.142 505.187 357 493C334.562 475.966 313.072 460.139 286 451.004C201.666 422.546 115.87 463.965 56 522.996C45.7969 533.056 29.5819 531.706 16 533.576C8.00472 534.678 0.116967 533.131 0 543C14.086 544.78 36.4242 543.417 49 550.013C57.3994 554.419 64.749 564.347 72 570.576C87.6431 584.014 104.149 596.216 122 606.576C174.874 637.263 238.292 647.013 296 624C325.971 612.048 345.403 591.031 371 573C377.817 596.663 391.073 617.08 395.576 642C408.884 715.655 380.651 788.255 310 820.691C280.745 834.123 251.447 834.751 221 842C223.736 778.283 251.227 709.156 311 679.27C333.504 668.018 356.613 666.082 381 663L374 625C356.36 625.002 337.772 628.204 321 633.67C302.586 639.67 284.903 647.557 269 658.721C205.832 703.063 182.033 783.019 182 857C181.993 871.841 167.969 883.829 159.21 895C156.64 898.278 148.831 905.369 153.337 909.624C157.864 913.898 166.574 904.245 170 901.576C177.847 895.462 187.487 884.651 197 881.564C203.978 879.299 213.626 880.872 221 880.17C295.462 873.084 369.88 851.395 411 783C418.743 770.121 424.942 756.405 429.28 742C436.311 718.654 438 695.223 438 671C522.364 698.441 602.224 772.498 578.105 869C572.231 892.5 561.236 915.008 547.656 935C540.721 945.21 530.096 954.876 525 966C513.646 957.935 505.283 943.479 497.667 932C470.519 891.076 456.107 841.147 471.025 793C476.691 774.715 486.218 758.098 497.888 743C500.645 739.434 510.905 731.14 508.248 726.174C504.646 719.438 492.382 713.994 486 710.201C483.497 708.713 480.181 706.099 477.09 707.242C470.599 709.639 464.109 721.471 460.344 727C440.715 755.829 428.482 788.06 426.09 823C422.639 873.393 442.532 923.566 471.427 964C479.342 975.075 487.832 986.01 497.089 996C502.206 1001.52 510.544 1007.99 513.436 1015C519.048 1028.61 518.153 1048.39 520 1063C529.01 1062.89 528.2 1056.58 529.05 1049C530.222 1038.56 529.865 1024.81 533.6 1015C535.79 1009.25 542.444 1004.59 546.424 1000C603.876 933.742 643.677 848.761 606.573 762C599.364 745.145 589.41 729.118 577.75 715C571.206 707.077 562.892 700.365 557 692C568.246 688.692 578.898 681.612 590 677.425C613.202 668.675 639.149 663.079 664 663.079C761.594 663.079 825.232 749.252 826 842C799.015 835.575 772.356 835.094 746 824.551C686.597 800.789 648 746.204 648 682L609 689C609.14 705.918 612.305 723.865 617.341 740C647.721 837.339 744.85 880.994 841 881C856.458 881.001 868.336 894.644 880 903.79C883.192 906.293 890.446 914.224 894.573 909.663C898.449 905.38 890.327 898.176 887.881 895C878.93 883.376 865.188 871.494 865.004 856C863.936 766.197 827.8 670.344 737 637.053C710.198 627.226 683.281 625 655 625C666.512 598.251 674.961 572.691 692.898 549C734.816 493.636 801.99 466.158 869 489.344C900.618 500.284 923.954 520.506 951 539L951 540C932.07 551.839 915.883 566.937 896 577.691C856.767 598.912 811.101 604.385 769 588.947C755.777 584.098 743.25 577.062 732 568.625C725.341 563.631 718.894 555.684 711 553C706.221 559.653 689.917 576.27 691.817 584.985C693.332 591.933 706.541 598.855 712 602.706C734.946 618.895 761.286 629.916 789 634.565C846.615 644.23 903.408 623.869 950 590.573C961.536 582.329 972.374 573.083 983 563.714C987.843 559.445 992.207 552.99 998 550.024C1011.14 543.3 1032.48 545.698 1047 543C1046.88 533.131 1039 534.678 1031 533.576C1014.47 531.299 1000.63 532.031 988 519.961C917.847 452.907 819.737 416.118 729 465.309C709.399 475.935 692.684 490.316 677 506C648.873 445.755 632.134 375.533 670.695 315C678.512 302.73 688.151 291.86 699 282.174C711.668 270.863 727.441 262.081 743 255.427C769.126 244.255 797.834 239.223 826 237C825.24 328.879 762.655 415 666 415C667.193 424.439 668.565 433.756 670.873 443C671.591 445.874 671.934 451.109 674.564 452.958C679.669 456.545 696.109 451.773 702 450.75C731.375 445.648 759.047 434.193 783 416.37C827.514 383.248 851.571 330.613 860.565 277C862.655 264.54 864.408 251.615 864.961 239C865.34 230.335 863.563 220.305 866.735 212C872.067 198.039 887.707 183.708 897 172L897 171C889.865 165.046 885.19 170.861 879 175.651C869.372 183.1 856.728 197.819 844 197.996C750.525 199.3 651.479 235.626 619.355 332C611.098 356.771 609 382.088 609 408C584.307 397.068 560.415 389.591 538 373.573C480.712 332.633 450.529 265.623 472.745 197C479.427 176.362 490.293 156.703 502.721 139C509.064 129.964 517.961 121.765 523 112C567.012 162.417 598.158 228.506 572.936 295C568.224 307.423 561.517 319.322 553.623 330C548.311 337.184 540.713 343.894 537 352C544.6 357.022 559.183 372.457 568.911 371.468C576.639 370.683 585.397 353.902 589.333 348C607.23 321.165 617.776 291.091 620.83 259C626.046 204.195 602.319 149.948 570.105 107C559.676 93.096 547.296 81.2004 536.148 68C529.343 59.9423 530.384 41.2616 529.155 31C528.229 23.2675 529.385 16.1118 520 16z"/>
<path style="fill:#ffffff; stroke:none;" d="M522 412.81L504 422.742L461 441.33L433.738 449.728L428.709 466L415.691 502L402.988 527L396.694 539L408.139 561L426.975 607L434.433 629.697L452 634.71L486 647.14L513 661.011L525 666.024L548 653.258L589 636.667L613.86 628.487L619 611L631.309 577L644.15 552L650.357 540L639.781 519L619.975 471L612.686 449.14L595 444L561 431.576L534 417.6L522 412.81M655 625C682.928 625 709.544 627.354 736 637.053C827.206 670.493 863.93 766.734 865.004 857C865.185 872.21 878.336 883.594 887.119 895C889.207 897.712 897.691 905.451 894.454 909.079C890.221 913.824 881.259 903.964 878 901.424C870.142 895.302 860.545 884.65 851 881.564C844.013 879.305 834.38 880.872 827 880.17C789.876 876.637 754.314 871.445 720 855.691C654.894 825.801 610.489 761.125 609 689L648 682C648 746.246 685.287 800.665 745 824.551C771.575 835.181 798.33 836.863 826 842C825.848 786.802 802.12 723.464 756 691.036C729.229 672.213 697.368 664.076 665 663.043C626.117 661.803 591.679 677.056 557 692C561.398 701.432 571.946 708.897 578.576 717C590.305 731.338 600.429 747.803 607.396 765C643.076 853.065 601.532 942.961 539.004 1007C529.66 1016.57 530.689 1034.19 529.155 1047C528.262 1054.46 529.314 1062.69 520 1063C518.851 1048.45 519.002 1027.49 513.436 1014C510.544 1006.99 502.206 1000.52 497.089 995C488.372 985.593 480.479 975.322 472.884 965C443.861 925.558 421.414 872.977 426.17 823C429.483 788.188 440.636 756.945 460.344 728C464.255 722.256 470.556 710.851 477.09 707.997C480.193 706.641 483.466 709.289 486 710.8C492.203 714.499 503.727 719.723 507.365 726.174C510.053 730.939 500.525 738.588 497.888 742C487.065 756.002 478.143 771.241 472.344 788C455.601 836.389 468.674 888.033 495.692 930C502.899 941.194 512.663 960.199 525 966C548.712 931.321 573.372 900.875 580.565 858C595.42 769.448 520.872 690.172 438 671C438 695.194 436.203 718.739 428.975 742C400.285 834.321 310.595 873.954 221 880.089C213.481 880.604 203.095 879.261 196 881.564C186.844 884.535 177.533 894.884 170 900.79C166.873 903.242 157.458 913.382 153.465 908.708C150.131 904.804 157.749 897.865 160 895C167.664 885.248 181.915 872.982 181.999 860C182.492 784.101 205.445 703.267 271 658.025C286.363 647.423 303.326 639.834 321 634.001C337.727 628.48 356.365 625.012 374 625L381 663C356.435 664.939 332.397 668.071 310 679.27C251.159 708.69 222.305 778.783 221 842C255.949 835.512 288.88 833.065 321 815.691C334.809 808.222 346.931 799.122 357.999 788C397.657 748.153 406.711 687.143 394.116 634C388.943 612.175 379.53 593.489 371 573C358.669 578.75 348.212 592.705 337 600.848C314.855 616.932 288.969 628.705 262 633.739C209.349 643.567 157.772 628.462 113 600.575C98.114 591.303 84.1537 580.42 71 568.845C64.4461 563.078 57.6859 554.044 50 550.013C37.5976 543.508 13.9561 544.102 0 543L0 1067L1047 1067L1047 543C1031.98 544.898 1012.07 544.056 998 549.589C992.072 551.919 987.625 558.645 983 562.83C971.894 572.878 960.266 582.668 948 591.279C901.798 623.715 844.958 645 788 634.196C760.486 628.977 734.863 618.226 712 601.999C706.963 598.424 692.722 590.755 692.252 583.996C691.579 574.311 706.848 561.336 711 553C718.344 556.81 724.352 563.639 731 568.625C741.975 576.855 754.148 583.724 767 588.575C833.565 613.699 900.281 584.276 951 540C939.391 523.859 915.55 510.551 898 501.753C877.915 491.685 857.448 483.97 835 481.286C744.435 470.454 680.152 546.34 655 625z"/>
</svg>
