<?xml version="1.0" standalone="no"?>
<!DOCTYPE svg PUBLIC "-//W3C//DTD SVG 20010904//EN"
 "http://www.w3.org/TR/2001/REC-SVG-20010904/DTD/svg10.dtd">
<svg version="1.0" xmlns="http://www.w3.org/2000/svg"
 width="1047" height="1067" viewBox="0 0 2480.000000 2480.000000"
 preserveAspectRatio="xMidYMid meet">
<g transform="translate(0.000000,2480.000000) scale(0.100000,-0.100000)"
fill="#000000" stroke="none">
<path d="M12107 21354 c-1 -1 -87 -4 -192 -8 -217 -8 -291 -11 -390 -20 -38
-3 -97 -9 -130 -11 -33 -3 -76 -8 -95 -10 -19 -2 -60 -7 -90 -10 -93 -10 -198
-24 -240 -31 -14 -2 -50 -6 -80 -10 -30 -3 -58 -8 -61 -10 -3 -1 -28 -6 -55
-9 -27 -4 -56 -8 -64 -10 -8 -3 -32 -7 -54 -11 -21 -3 -48 -8 -60 -10 -11 -2
-37 -7 -56 -10 -19 -3 -96 -19 -170 -36 -74 -16 -146 -32 -160 -34 -47 -9
-265 -65 -390 -100 -737 -208 -1435 -504 -2100 -891 -52 -31 -114 -69 -137
-84 -23 -16 -44 -29 -47 -29 -9 0 -347 -222 -446 -293 -104 -74 -403 -298
-410 -307 -3 -3 -51 -43 -106 -88 -56 -44 -108 -87 -115 -94 -8 -7 -32 -28
-54 -47 -300 -254 -694 -649 -946 -946 -19 -22 -36 -42 -39 -45 -22 -22 -193
-233 -254 -313 -11 -16 -26 -34 -31 -40 -21 -24 -224 -305 -298 -414 -89 -130
-281 -434 -324 -513 -16 -30 -60 -107 -96 -171 -92 -162 -347 -672 -347 -694
0 -3 -12 -30 -26 -62 -31 -69 -44 -99 -74 -173 -12 -30 -29 -69 -36 -86 -42
-95 -234 -645 -249 -710 -2 -10 -18 -66 -35 -124 -87 -291 -179 -695 -225
-990 -3 -19 -7 -46 -10 -60 -3 -14 -7 -41 -10 -60 -3 -19 -7 -46 -10 -60 -2
-14 -7 -47 -10 -75 -3 -27 -8 -61 -10 -75 -5 -35 -13 -104 -20 -175 -3 -33 -8
-73 -10 -90 -2 -16 -7 -70 -10 -120 -4 -49 -9 -101 -11 -115 -9 -76 -19 -393
-18 -655 0 -378 12 -642 39 -885 2 -19 7 -66 10 -105 3 -38 8 -77 10 -85 2 -8
6 -42 10 -75 3 -33 8 -71 10 -85 7 -40 14 -82 20 -135 4 -27 22 -133 41 -235
38 -207 35 -191 64 -320 12 -52 23 -106 26 -120 6 -32 92 -365 104 -405 5 -16
33 -104 60 -195 202 -656 491 -1309 834 -1885 39 -66 73 -124 76 -130 6 -12
27 -44 179 -275 63 -96 117 -177 120 -180 4 -3 19 -24 34 -48 15 -23 34 -50
42 -60 7 -9 55 -73 107 -142 51 -69 95 -127 98 -130 3 -3 41 -50 85 -105 44
-55 89 -111 101 -125 12 -14 52 -61 90 -105 38 -44 89 -102 114 -130 25 -27
70 -76 100 -110 143 -157 544 -546 660 -641 19 -16 40 -34 45 -40 6 -5 39 -35
75 -65 36 -29 67 -56 70 -59 3 -4 59 -49 125 -101 440 -349 854 -623 1346
-892 199 -108 723 -357 752 -357 7 0 17 -4 23 -9 21 -20 435 -176 674 -255
279 -91 750 -217 908 -242 20 -3 40 -8 43 -10 3 -2 21 -6 40 -9 19 -3 52 -10
74 -15 22 -5 56 -12 75 -15 19 -3 60 -10 90 -15 30 -5 72 -12 94 -16 21 -3 46
-7 55 -9 9 -1 52 -8 96 -15 44 -6 90 -13 103 -15 13 -2 53 -7 90 -11 37 -3 75
-8 85 -10 10 -2 46 -6 80 -9 34 -3 78 -8 97 -10 33 -4 160 -14 245 -20 329
-23 955 -23 1205 0 19 2 78 6 130 10 52 3 106 8 120 10 14 2 59 7 100 10 41 4
82 8 90 10 8 2 44 6 80 10 36 4 72 8 80 10 8 1 40 6 70 10 30 4 64 9 75 11 11
3 39 7 61 10 23 2 53 7 65 9 13 3 38 8 54 10 145 25 235 43 385 77 96 21 185
41 196 43 272 60 945 271 1129 355 11 4 52 21 90 36 373 143 858 385 1250 621
77 46 149 89 160 96 262 158 795 546 1011 736 22 20 53 47 70 60 225 186 617
572 870 857 342 385 693 861 952 1291 256 425 491 896 658 1323 36 91 69 174
74 185 32 75 160 466 219 670 34 120 116 446 135 540 4 17 8 39 10 50 26 121
59 298 71 375 9 52 18 106 20 120 2 14 7 48 11 75 3 28 8 57 9 65 2 8 6 40 10
70 3 30 8 66 10 80 2 14 7 57 11 95 3 39 8 77 9 86 2 9 7 63 10 120 4 57 9
115 11 129 25 192 24 1047 -1 1305 -2 22 -7 74 -10 115 -5 73 -10 122 -20 205
-3 22 -8 67 -11 99 -3 33 -7 67 -9 76 -2 9 -6 41 -10 71 -3 30 -15 108 -26
174 -11 66 -22 136 -25 155 -3 19 -16 89 -29 155 -13 66 -26 132 -29 147 -2
15 -7 31 -9 35 -3 5 -8 26 -11 48 -4 22 -13 67 -21 100 -9 33 -17 69 -19 80
-4 20 -67 257 -92 345 -112 400 -302 907 -484 1295 -84 181 -277 558 -300 590
-4 6 -18 30 -32 55 -51 92 -192 325 -205 338 -7 7 -13 17 -13 22 0 23 -453
671 -489 700 -4 3 -20 23 -36 46 -32 44 -62 80 -194 238 -74 89 -138 160 -296
335 -69 77 -387 392 -479 476 -48 44 -105 96 -126 115 -21 19 -49 44 -62 54
-12 11 -52 45 -88 76 -342 299 -921 707 -1335 940 -22 13 -60 34 -85 48 -122
69 -203 111 -405 211 -121 59 -240 117 -265 128 -628 282 -1245 482 -1890 614
-25 5 -58 12 -75 15 -16 3 -48 9 -70 14 -22 5 -56 11 -75 14 -19 3 -46 8 -60
11 -14 3 -72 12 -130 20 -58 9 -116 18 -130 20 -38 6 -122 17 -150 20 -37 4
-140 15 -180 20 -78 9 -209 20 -365 30 -139 10 -681 24 -688 19z m443 -778
c163 -7 202 -9 350 -21 96 -7 209 -19 295 -29 17 -2 55 -7 85 -11 30 -3 66 -8
80 -10 14 -2 45 -7 70 -10 25 -3 95 -15 155 -25 61 -11 126 -22 145 -25 19 -3
53 -10 75 -15 22 -5 56 -11 75 -15 19 -3 62 -12 95 -20 33 -8 71 -16 85 -19
87 -15 599 -155 645 -175 11 -5 65 -24 120 -41 55 -17 109 -35 120 -40 11 -5
83 -32 161 -60 77 -29 146 -55 153 -59 10 -6 12 -1122 12 -5392 0 -2961 0
-5392 -1 -5401 0 -15 -47 -16 -614 -16 -463 -1 -615 2 -618 11 -2 7 -4 1372
-4 3035 l1 3022 -816 0 -815 0 -95 -152 c-52 -84 -98 -161 -104 -170 -16 -28
-225 -369 -250 -408 -13 -19 -114 -183 -225 -365 -111 -181 -213 -346 -225
-365 -20 -31 -477 -772 -1499 -2435 -170 -275 -318 -516 -331 -535 -12 -19
-57 -91 -98 -160 -42 -69 -81 -130 -87 -137 -5 -7 -10 -14 -10 -17 0 -3 -33
-58 -74 -123 -40 -65 -135 -219 -211 -343 -75 -124 -142 -230 -149 -237 -8 -9
-11 1286 -11 5052 0 2785 2 5066 5 5069 18 18 464 184 695 260 108 35 342 104
378 111 10 2 27 7 37 10 10 3 27 8 37 10 10 2 65 16 123 30 93 23 143 34 230
51 14 3 52 11 85 19 33 7 80 16 105 20 25 3 63 10 85 15 22 5 58 11 80 14 23
4 50 8 60 10 18 3 53 8 150 22 36 5 273 33 330 39 112 12 255 21 475 30 91 4
166 8 167 8 3 4 319 -1 473 -7z m4265 -1404 c195 -133 574 -418 615 -462 3 -3
32 -27 65 -55 144 -118 308 -270 499 -460 127 -127 171 -173 310 -325 151
-164 419 -498 551 -685 27 -38 51 -72 54 -75 19 -16 332 -503 354 -550 4 -8
15 -28 26 -45 97 -158 264 -481 371 -720 39 -88 77 -173 85 -190 81 -181 315
-839 315 -887 0 -4 -35 16 -77 45 -414 283 -873 446 -1363 485 -112 9 -393 8
-500 -1 -415 -37 -762 -161 -1105 -395 -191 -131 -400 -325 -517 -481 l-48
-63 -1 44 c0 57 0 5018 0 5040 1 18 148 -70 366 -220z m-8958 -2382 c0 -1386
-3 -2520 -7 -2520 -4 0 -10 6 -13 13 -9 25 -113 144 -212 243 -334 336 -767
565 -1220 644 -173 30 -241 35 -460 35 -235 0 -384 -11 -530 -40 -11 -2 -45
-9 -75 -14 -268 -53 -600 -181 -843 -325 -42 -25 -77 -41 -77 -36 0 5 5 21 11
37 6 15 12 35 14 43 11 55 175 512 220 615 8 17 33 75 56 130 23 55 53 125 66
155 52 114 95 206 105 224 5 11 26 51 45 90 68 136 197 372 260 475 34 57 63
105 63 107 0 11 241 375 334 504 78 109 224 301 272 360 12 14 67 80 122 146
97 116 135 160 282 318 101 108 335 341 446 442 174 159 159 146 459 393 117
96 660 481 679 481 2 0 3 -1134 3 -2520z m10618 -2523 c11 -2 43 -8 70 -12 75
-10 228 -52 314 -86 485 -192 882 -636 1062 -1191 51 -157 105 -396 124 -551
35 -284 40 -399 39 -832 0 -332 -6 -517 -19 -605 -51 -349 -115 -538 -325
-965 -198 -401 -201 -406 -335 -541 -194 -194 -361 -311 -585 -406 -79 -34
-200 -73 -260 -84 -14 -2 -36 -7 -50 -9 -14 -3 -36 -8 -50 -10 -48 -9 -175
-19 -260 -19 -462 0 -870 176 -1205 519 -259 265 -410 540 -520 950 -31 112
-29 105 -39 160 -4 22 -11 60 -17 85 -17 83 -34 207 -45 330 -4 36 -10 97 -14
135 -8 72 -5 762 3 849 3 26 8 78 12 115 3 36 8 80 10 96 3 17 7 53 10 80 13
107 43 277 71 395 9 36 17 72 19 80 11 47 70 232 87 275 11 28 29 73 40 100
143 360 441 712 773 915 194 119 399 191 640 224 83 12 403 14 450 3z m-12190
-50 c11 -2 40 -8 65 -12 172 -26 418 -117 565 -207 38 -24 190 -133 220 -158
39 -33 212 -206 247 -247 121 -143 221 -308 318 -528 56 -127 138 -406 169
-580 6 -33 13 -71 16 -85 8 -39 33 -229 40 -295 12 -117 14 -141 21 -255 14
-218 8 -762 -10 -870 -3 -14 -7 -56 -11 -95 -3 -38 -8 -77 -10 -85 -2 -8 -6
-37 -10 -65 -9 -78 -52 -281 -80 -380 -14 -49 -27 -97 -29 -105 -40 -145 -158
-397 -254 -541 -305 -455 -756 -740 -1262 -795 -40 -4 -313 -5 -335 0 -20 3
-138 18 -142 18 -2 -1 -17 4 -35 9 -18 5 -46 12 -62 15 -113 20 -345 123 -487
216 -179 116 -419 344 -472 448 -118 227 -273 544 -315 640 -103 239 -167 469
-188 669 -2 26 -6 56 -9 69 -22 122 -22 917 -1 1137 2 17 6 62 10 100 3 39 9
86 12 105 2 19 6 49 8 65 2 17 9 57 15 90 6 33 13 74 16 90 21 125 105 409
153 515 8 19 16 37 16 40 5 19 67 139 109 210 104 174 288 390 437 512 235
192 543 327 810 354 36 3 67 8 69 10 6 6 371 -3 396 -9z m6583 -2591 l-1
-2435 -1518 1 c-836 0 -1519 1 -1519 3 0 7 122 206 223 365 26 41 80 127 119
190 38 63 81 131 93 150 22 33 375 598 475 760 83 135 403 648 604 969 108
172 196 315 196 318 0 2 5 9 10 16 6 7 211 334 456 727 890 1428 854 1370 859
1370 2 0 3 -1095 3 -2434z m3667 -2841 c201 -248 419 -426 682 -559 146 -74
360 -153 463 -172 14 -2 45 -9 70 -14 64 -15 89 -19 140 -25 25 -3 56 -8 69
-11 80 -17 431 -24 591 -11 110 9 154 14 230 28 30 6 66 12 80 14 29 5 256 60
285 70 12 4 15 3 9 -2 -5 -4 -27 -36 -47 -69 -121 -201 -464 -665 -655 -887
-279 -323 -582 -630 -867 -878 -646 -561 -1391 -1027 -2182 -1363 -72 -31
-135 -56 -140 -56 -4 0 -19 -6 -33 -13 -14 -7 -104 -42 -200 -76 -201 -73
-202 -73 -215 -77 -180 -58 -265 -83 -380 -115 -77 -21 -156 -43 -175 -49 -45
-13 -205 -50 -216 -50 -13 0 -12 3650 1 3651 5 0 530 1 1167 1 l1156 1 0 421
c1 232 1 432 1 445 1 19 10 10 47 -45 25 -38 79 -109 119 -159z m-8597 -247
c0 -233 1 -429 1 -436 1 -13 752 -12 2616 3 1958 15 2270 17 2296 16 15 -1 17
-33 17 -348 2 -2274 2 -3476 -1 -3479 -11 -12 -401 -28 -652 -27 -187 0 -456
9 -535 17 -19 2 -78 7 -130 10 -52 4 -111 8 -130 11 -19 2 -62 7 -95 10 -33 4
-73 9 -90 11 -16 1 -52 6 -80 9 -27 3 -57 7 -65 9 -8 3 -37 7 -65 11 -27 3
-75 10 -105 15 -30 5 -72 12 -94 16 -21 3 -48 8 -60 10 -11 2 -55 11 -96 19
-130 25 -221 45 -350 76 -69 17 -132 32 -140 34 -197 43 -741 224 -1040 347
-265 108 -689 312 -875 420 -33 19 -78 45 -100 58 -123 72 -265 157 -300 180
-22 15 -103 69 -180 120 -181 121 -447 316 -571 419 -17 14 -42 35 -55 45 -27
22 -141 118 -149 126 -3 3 -39 34 -80 70 -229 198 -563 536 -780 790 -40 47
-82 96 -94 110 -45 52 -184 228 -242 305 -127 168 -338 474 -331 481 2 2 35
-3 73 -11 38 -7 92 -16 119 -19 28 -4 60 -8 73 -11 145 -28 615 -22 768 10 12
3 39 7 60 11 32 5 93 19 257 59 108 26 336 125 463 201 194 115 429 316 550
469 21 27 45 56 52 64 7 7 41 53 74 102 34 49 63 89 64 89 1 0 2 -190 2 -422z"/>
</g>
</svg>
