<?xml version="1.0" encoding="utf-8"?>
<!-- Generator: Adobe Illustrator 24.3.2, SVG Export Plug-In . SVG Version: 6.00 Build 0)  -->
<svg version="1.1" id="Ebene_1" xmlns="http://www.w3.org/2000/svg" xmlns:xlink="http://www.w3.org/1999/xlink" x="0px" y="0px"
	 viewBox="0 0 113.39 113.39" style="enable-background:new 0 0 113.39 113.39;" xml:space="preserve">
<style type="text/css">
	.st0{clip-path:url(#SVGID_2_);}
	.st1{fill:#5D5247;}
	.st2{clip-path:url(#SVGID_2_);fill:#5D5247;}
</style>
<g>
	<defs>
		<rect id="SVGID_1_" x="5.86" y="3.8" width="103.45" height="103.37"/>
	</defs>
	<clipPath id="SVGID_2_">
		<use xlink:href="#SVGID_1_"  style="overflow:visible;"/>
	</clipPath>
	<g class="st0">
		<path class="st1" d="M57.58,107.17c-28.52,0-51.72-23.19-51.72-51.68c0-28.5,23.2-51.68,51.72-51.68
			c28.52,0,51.72,23.18,51.72,51.68C109.3,83.99,86.1,107.17,57.58,107.17z M57.58,6.13c-27.24,0-49.39,22.14-49.39,49.35
			c0,27.21,22.16,49.36,49.39,49.36c27.24,0,49.4-22.14,49.4-49.36C106.97,28.27,84.82,6.13,57.58,6.13z"/>
	</g>
	<path class="st2" d="M61.05,80.18H49.69V55.23h-5.44v-8.49c1.27,0,2.55-0.06,3.82,0.02c1.18,0.07,1.66-0.31,1.61-1.54
		c-0.08-1.88-0.05-3.77-0.02-5.66c0.08-5.01,2.93-8.32,7.86-9.12c0.58-0.1,1.18-0.13,1.77-0.13c3.39-0.01,6.78-0.01,10.29-0.01v8.54
		c-1.57,0-3.16-0.01-4.75,0c-3.07,0.03-3.82,0.79-3.81,3.84c0,1.28,0,2.56,0,4h8.75c-0.36,2.89-0.69,5.59-1.05,8.45h-7.67V80.18z"/>
</g>
</svg>
