<?xml version="1.0" encoding="utf-8"?>
<!-- Generator: Adobe Illustrator 24.3.2, SVG Export Plug-In . SVG Version: 6.00 Build 0)  -->
<svg version="1.1" id="Ebene_1" xmlns="http://www.w3.org/2000/svg" xmlns:xlink="http://www.w3.org/1999/xlink" x="0px" y="0px"
	 viewBox="0 0 113.39 113.39" style="enable-background:new 0 0 113.39 113.39;" xml:space="preserve">
<style type="text/css">
	.st0{clip-path:url(#SVGID_2_);}
	.st1{fill:#5D5247;}
	.st2{clip-path:url(#SVGID_2_);fill:#5D5247;}
</style>
<g>
	<defs>
		<rect id="SVGID_1_" x="5.37" y="4.78" width="103.45" height="103.37"/>
	</defs>
	<clipPath id="SVGID_2_">
		<use xlink:href="#SVGID_1_"  style="overflow:visible;"/>
	</clipPath>
	<g class="st0">
		<path class="st1" d="M57.1,108.14c-28.52,0-51.72-23.19-51.72-51.68c0-28.5,23.2-51.68,51.72-51.68
			c28.52,0,51.72,23.18,51.72,51.68C108.82,84.96,85.62,108.14,57.1,108.14z M57.1,7.11C29.86,7.11,7.7,29.25,7.7,56.46
			c0,27.21,22.16,49.36,49.39,49.36c27.24,0,49.4-22.14,49.4-49.36C106.49,29.25,84.33,7.11,57.1,7.11z"/>
	</g>
	<path class="st2" d="M80.1,57.33L80.1,57.33c0-4.81,0-9.62,0.01-14.42c0-1.31-0.12-2.6-0.63-3.82c-1.25-3.03-4.09-5.06-7.38-5.1
		c-5.01-0.06-10.02-0.02-15.03-0.02c-4.75,0-9.5,0-14.25,0c-1.14,0-2.27-0.02-3.39,0.27c-3.61,0.94-6.17,4.24-6.17,7.97
		c0,1.39,0,2.77,0,4.16c0,4.07,0,8.13,0,12.2c0,4.11,0,8.22,0,12.33c0,1.15-0.05,2.31,0.21,3.46c0.83,3.69,4.13,6.4,7.92,6.42
		c4.86,0.02,9.73,0.01,14.59,0.01c4.75,0,9.5,0,14.25,0c1.15,0,2.31,0.04,3.46-0.21c3.69-0.82,6.42-4.19,6.42-7.95
		C80.1,67.51,80.1,62.42,80.1,57.33 M56.65,84.34c-5.23,0-10.46,0.05-15.69-0.02c-2.94-0.04-5.48-1.21-7.62-3.22
		c-1.72-1.62-2.83-3.61-3.38-5.9c-0.26-1.1-0.29-2.23-0.29-3.35c0.01-4.75,0-9.49,0-14.24c0-4.07,0-8.14,0-12.2
		c0-1.09-0.01-2.19,0-3.29c0.01-2.71,0.86-5.13,2.54-7.25c1.72-2.18,3.96-3.58,6.66-4.2c0.82-0.18,1.67-0.27,2.51-0.27
		c5.88-0.02,11.75-0.01,17.63-0.01c4.25,0,8.5,0.01,12.75-0.01c2.94-0.01,5.55,0.92,7.78,2.82c2.36,2.02,3.76,4.6,4.07,7.7
		c0.12,1.2,0.07,2.42,0.08,3.62c0.01,4.07,0,8.14,0,12.2s0,8.14,0,12.2c0,1.32,0.02,2.63-0.01,3.94c-0.05,2.63-0.92,4.97-2.56,7.03
		c-1.72,2.15-3.93,3.56-6.61,4.15c-0.9,0.2-1.84,0.28-2.76,0.28C66.71,84.36,61.68,84.35,56.65,84.34L56.65,84.34z"/>
	<path class="st2" d="M45.89,57.36c-0.04,5.79,4.62,10.78,10.77,10.8c6.01,0.01,10.82-4.78,10.82-10.79
		c0-6.13-4.98-10.78-10.75-10.79C50.73,46.57,45.89,51.36,45.89,57.36 M56.67,71.76c-7.96,0-14.4-6.45-14.4-14.41
		c0-7.96,6.47-14.39,14.47-14.38c7.93,0.01,14.5,6.52,14.35,14.68C70.94,65.41,64.59,71.77,56.67,71.76"/>
	<path class="st2" d="M67.49,42.93c0.02-2.02,1.63-3.58,3.69-3.55c1.92,0.03,3.52,1.64,3.51,3.59c-0.02,2.02-1.62,3.6-3.6,3.61
		C69.06,46.58,67.48,44.95,67.49,42.93"/>
</g>
</svg>
