<?xml version="1.0" encoding="utf-8"?>
<!-- Generator: Adobe Illustrator 24.3.2, SVG Export Plug-In . SVG Version: 6.00 Build 0)  -->
<svg version="1.1" id="Ebene_1" xmlns="http://www.w3.org/2000/svg" xmlns:xlink="http://www.w3.org/1999/xlink" x="0px" y="0px"
	 viewBox="0 0 113.39 113.39" style="enable-background:new 0 0 113.39 113.39;" xml:space="preserve">
<style type="text/css">
	.st0{clip-path:url(#SVGID_2_);}
	.st1{fill:#5D5247;}
	.st2{clip-path:url(#SVGID_2_);fill:#5D5247;}
</style>
<g>
	<defs>
		<rect id="SVGID_1_" x="5.86" y="3.8" width="103.45" height="103.37"/>
	</defs>
	<clipPath id="SVGID_2_">
		<use xlink:href="#SVGID_1_"  style="overflow:visible;"/>
	</clipPath>
	<g class="st0">
		<path class="st1" d="M57.58,107.17c-28.52,0-51.72-23.18-51.72-51.68c0-28.5,23.2-51.68,51.72-51.68
			c28.52,0,51.72,23.19,51.72,51.68C109.3,83.99,86.1,107.17,57.58,107.17z M57.58,6.13c-27.24,0-49.39,22.14-49.39,49.35
			c0,27.21,22.16,49.35,49.39,49.35c27.24,0,49.4-22.14,49.4-49.35C106.97,28.27,84.82,6.13,57.58,6.13z"/>
	</g>
	<path class="st2" d="M82.09,53.3c0-3.96-1.01-7-3.02-9.1c-2.01-2.1-4.96-3.15-8.85-3.15c-2.27,0-4.3,0.41-6.09,1.24
		c-1.78,0.83-3.19,2.05-4.2,3.66h-0.51l-1.23-4.27h-6.97v33.41h9.12V59.37c0-3.94,0.57-6.77,1.7-8.47c1.14-1.7,2.98-2.56,5.53-2.56
		c1.87,0,3.24,0.6,4.1,1.81c0.86,1.21,1.29,3.01,1.29,5.42v19.51h9.12V53.3z M44.72,41.68H35.6v33.41h9.12V41.68z M40.17,37.53
		c1.65,0,2.9-0.39,3.72-1.18c0.83-0.79,1.24-1.89,1.24-3.3c0-2.97-1.65-4.45-4.96-4.45c-3.31,0-4.96,1.48-4.96,4.45
		C35.21,36.03,36.86,37.53,40.17,37.53"/>
</g>
</svg>
